<svg xmlns="http://www.w3.org/2000/svg" viewBox="0 0 161.000000 125.000000">

<g transform="translate(0.000000,125.000000) scale(0.100000,-0.100000)"
fill="#FFFFFF" stroke="none">
<path d="M53 1242 c-20 -13 -43 -78 -49 -140 -5 -42 -1 -72 13 -114 17 -49 17
-58 5 -63 -12 -4 -14 -22 -10 -88 5 -97 38 -170 100 -220 22 -18 49 -54 64
-86 14 -31 40 -72 58 -91 19 -19 39 -45 45 -57 6 -13 30 -32 51 -43 34 -18 40
-25 40 -53 0 -18 6 -41 13 -50 6 -9 98 -62 202 -118 105 -57 192 -107 193
-111 5 -10 39 -10 44 0 2 4 89 54 193 111 105 56 196 109 203 118 6 9 12 32
12 50 0 28 6 35 40 53 21 11 45 30 51 43 6 12 26 38 45 57 18 19 44 60 58 91
15 32 42 68 64 86 62 50 95 123 100 220 4 67 2 84 -10 88 -13 5 -13 12 1 53 9
26 19 49 24 50 11 5 8 92 -3 92 -5 0 -10 9 -10 20 0 31 -30 98 -47 104 -9 4
-63 -12 -120 -34 -96 -37 -106 -39 -126 -25 -32 23 -962 23 -994 0 -20 -14
-30 -12 -125 25 -114 44 -108 43 -125 32z m124 -79 l93 -36 0 -335 c0 -303 -1
-333 -16 -321 -14 11 -54 81 -54 93 0 2 10 6 23 8 20 3 19 5 -13 22 -94 49
-142 111 -160 206 -15 79 -8 93 43 85 l41 -7 -36 42 c-42 48 -63 121 -55 184
7 50 23 96 34 96 4 0 49 -17 100 -37z m1364 10 c33 -87 18 -188 -39 -253 l-36
-42 41 7 c51 8 58 -6 43 -85 -18 -95 -66 -157 -160 -206 -32 -17 -33 -19 -12
-22 12 -2 22 -6 22 -8 0 -12 -40 -82 -54 -93 -15 -12 -16 18 -16 321 l0 335
88 35 c48 20 93 37 100 37 7 1 17 -11 23 -26z"/>
</g>
</svg>